<svg width="60" height="60" viewBox="0 0 60 60" fill="none" xmlns="http://www.w3.org/2000/svg">
<path d="M30 0C13.5223 0 0 13.5223 0 30C0 44.0611 9.86664 56.8341 22.9688 60V50.0748C21.6705 50.359 20.4758 50.3673 19.1542 49.9777C17.3813 49.4545 15.9407 48.2735 14.8714 46.4726C14.1898 45.3227 12.9817 44.0758 11.7215 44.1673L11.4125 40.6654C14.1376 40.432 16.4951 42.3257 17.8944 44.6768C18.5161 45.7224 19.2316 46.3353 20.1498 46.6063C21.0374 46.8677 21.9905 46.7422 23.101 46.3499C23.3798 44.1266 24.3983 43.2944 25.1678 42.1225V42.1207C17.3538 40.9552 14.2397 36.8097 13.0037 33.5376C11.3658 29.193 12.2447 23.7653 15.141 20.3352C15.1973 20.2684 15.2989 20.0935 15.2596 19.9713C13.9316 15.9599 15.5498 12.6416 15.6093 12.2896C17.1419 12.7428 17.3909 11.8336 22.2665 14.7958L23.1093 15.3021C23.4618 15.5122 23.351 15.3923 23.7035 15.3658C25.7391 14.8128 27.8851 14.5074 29.9995 14.48C32.13 14.5074 34.2622 14.8128 36.3821 15.3882L36.655 15.4156C36.6312 15.412 36.7291 15.3983 36.8935 15.3003C42.984 11.6112 42.7652 12.8169 44.3985 12.2859C44.4576 12.6384 46.0542 16.0107 44.7404 19.9713C44.5633 20.517 50.0208 25.5144 46.9958 33.5362C45.7599 36.8097 42.6462 40.9552 34.8322 42.1207V42.1225C35.8337 43.6491 37.0372 44.4612 37.0308 47.6106V60C50.1334 56.8341 59.9995 44.0611 59.9995 30C60 13.5223 46.4777 0 30 0V0Z" fill="white"/>
</svg>
